custom-analysis
version=1
nRows=8
nColumns=42
inDegrees=no

This file contains tibia displacement and acting force.

Units are S.I. units (seconds, meters, Newtons, ...)
Angles are in degrees.

endheader
time	APT	SIT	knee_angle	aACL_R_force	pACL_R_force	aPCL_R_force	pPCL_R_force	aMCL_R_force	mMCL_R_force	pMCL_R_force	aLCL_R_force	mLCL_R_force	pLCL_R_force	aACL_R_length	pACL_R_length	aPCL_R_length	pPCL_R_length	aMCL_R_length	mMCL_R_length	pMCL_R_length	aLCL_R_length	mLCL_R_length	pLCL_R_length	aACL_R_strain	pACL_R_strain	aPCL_R_strain	pPCL_R_strain	aMCL_R_strain	mMCL_R_strain	pMCL_R_strain	aLCL_R_strain	mLCL_R_strain	pLCL_R_strain	femur_lat_meniscii_force_r	femur_lat_meniscii_torque_r	femur_med_meniscii_force_r	femur_med_meniscii_torque_r	femur_lat_tibia_force_r	femur_lat_tibia_torque_r	femur_med_tibia_force_r	femur_med_tibia_torque_r
      0.73037694	      0.00163050	      0.00065072	     15.00005728	     50.92312146	     43.35910759	      0.00000000	      0.00000000	      0.00000000	     -0.36220608	     -0.44669694	      0.05471837	      0.00000000	      0.00000000	      0.03356053	      0.02707176	      0.03002723	      0.02966971	      0.05658751	      0.06007733	      0.06088723	      0.05642251	      0.05415633	      0.05144013	      0.08240560	      0.06755303	     -0.03434817	     -0.01389551	     -0.02480718	      0.00474691	      0.00262203	      0.00795517	     -0.03839351	     -0.01724351	     90.29701723	     20.89787935	     60.27624796	     14.06346572	      0.00000000	      0.00000000	      5.58220219	      0.11394948
      0.73316533	      0.00163126	      0.00065095	     15.00005728	     51.12919098	     43.57976994	      0.00000000	      0.00000000	      0.00000000	      0.12552051	      0.03679249	      0.70087471	      0.00000000	      0.00000000	      0.03356123	      0.02707255	      0.03002640	      0.02966885	      0.05658663	      0.06007645	      0.06088639	      0.05642269	      0.05415655	      0.05144034	      0.08242831	      0.06758420	     -0.03437491	     -0.01392438	     -0.02482247	      0.00473219	      0.00260825	      0.00795839	     -0.03838969	     -0.01723949	     89.14438962	     20.61000806	     59.66931992	     13.92078990	      0.00000000	      0.00000000	      5.68172697	      0.11602672
      0.73360276	      0.00163137	      0.00065087	     15.00005728	     51.13077494	     43.58294291	      0.00000000	      0.00000000	      0.00000000	      0.11868096	      0.03043573	      0.69080878	      0.00000000	      0.00000000	      0.03356142	      0.02707275	      0.03002639	      0.02966883	      0.05658661	      0.06007644	      0.06088638	      0.05642284	      0.05415671	      0.05144050	      0.08243439	      0.06759208	     -0.03437528	     -0.01392490	     -0.02482277	      0.00473192	      0.00260809	      0.00796118	     -0.03838682	     -0.01723641	     89.16302919	     20.61604402	     59.69020247	     13.92652288	      0.00000000	      0.00000000	      5.67210804	      0.11582752
      0.73392653	      0.00163145	      0.00065081	     15.00005728	     51.12074603	     43.57351236	      0.00000000	      0.00000000	      0.00000000	      0.09714529	      0.00922544	      0.66532717	      0.00000000	      0.00000000	      0.03356155	      0.02707289	      0.03002638	      0.02966881	      0.05658659	      0.06007642	      0.06088637	      0.05642295	      0.05415682	      0.05144061	      0.08243864	      0.06759758	     -0.03437568	     -0.01392542	     -0.02482308	      0.00473163	      0.00260788	      0.00796314	     -0.03838479	     -0.01723423	     89.21178806	     20.62861971	     59.73433605	     13.93706595	      0.00000000	      0.00000000	      5.66895656	      0.11576118
      0.73554540	      0.00163178	      0.00065077	     15.00005728	     51.04532055	     43.49831242	      0.00000000	      0.00000000	      0.00000000	     -0.00410301	     -0.09243432	      0.57040131	      0.00000000	      0.00000000	      0.03356194	      0.02707330	      0.03002621	      0.02966862	      0.05658631	      0.06007614	      0.06088611	      0.05642333	      0.05415722	      0.05144101	      0.08245104	      0.06761394	     -0.03438113	     -0.01393184	     -0.02482798	      0.00472688	      0.00260358	      0.00796990	     -0.03837773	     -0.01722663	     89.39633149	     20.67045623	     59.96085526	     13.98759297	      0.00000000	      0.00000000	      5.72834482	      0.11698464
      0.73864280	      0.00163196	      0.00065096	     15.00005728	     50.97084772	     43.42605884	      0.00000000	      0.00000000	      0.00000000	     -0.07072702	     -0.16242641	      0.55111385	      0.00000000	      0.00000000	      0.03356204	      0.02707346	      0.03002602	      0.02966836	      0.05658553	      0.06007535	      0.06088536	      0.05642399	      0.05415790	      0.05144170	      0.08245452	      0.06762026	     -0.03438709	     -0.01394049	     -0.02484145	      0.00471374	      0.00259119	      0.00798169	     -0.03836557	     -0.01721346	     89.38432835	     20.65545950	     60.15358087	     14.02438400	      0.00000000	      0.00000000	      5.94178865	      0.12140768
      0.74504938	      0.00163141	      0.00065160	     15.00005728	     51.07401698	     43.54665779	      0.00000000	      0.00000000	      0.00000000	      0.18792974	      0.08887395	      0.96338712	      0.00000000	      0.00000000	      0.03356169	      0.02707329	      0.03002585	      0.02966798	      0.05658351	      0.06007334	      0.06088338	      0.05642540	      0.05415933	      0.05144313	      0.08244322	      0.06761355	     -0.03439257	     -0.01395321	     -0.02487610	      0.00468012	      0.00255862	      0.00800681	     -0.03834022	     -0.01718611	     88.44060575	     20.40492095	     59.83627798	     13.94197018	      0.00000000	      0.00000000	      6.41638334	      0.13127856
      0.74881507	      0.00163080	      0.00065099	     15.00005728	     50.96340225	     43.44608388	      0.00000000	      0.00000000	      0.00000000	     -0.21033769	     -0.30253555	      0.44271025	      0.00000000	      0.00000000	      0.03356231	      0.02707406	      0.03002659	      0.02966859	      0.05658314	      0.06007298	      0.06088302	      0.05642723	      0.05416117	      0.05144497	      0.08246310	      0.06764395	     -0.03436890	     -0.01393291	     -0.02488258	      0.00467408	      0.00255264	      0.00803956	     -0.03830758	     -0.01715107	     89.26682685	     20.61987166	     60.42774356	     14.07798177	      0.00000000	      0.00000000	      6.45239773	      0.13203770
